<svg xmlns="http://www.w3.org/2000/svg" version="1.1" xmlns:xlink="http://www.w3.org/1999/xlink" xmlns:svgjs="http://svgjs.dev/svgjs" viewBox="0 0 800 800"><defs><linearGradient x1="50%" y1="0%" x2="50%" y2="100%" id="ssscribble-grad"><stop stop-color="hsl(206, 75%, 49%)" stop-opacity="1" offset="0%"></stop><stop stop-color="hsl(331, 90%, 56%)" stop-opacity="1" offset="100%"></stop></linearGradient></defs><g fill="none" stroke-width="1" stroke="url(#ssscribble-grad)" stroke-linecap="round" stroke-dasharray="35"><path d="M901.56 509.7C864.76 529.11 849.56 549 858.37 568.92 889.37 588.34 933.66 606.83 980.69 623.32 1033.83 643.48 1012.22 656.71 944.28 646.59 890.42 636.23 840.34 622.44 800.66 607.93 775.7 598.75 766.99 595.54 772.97 602.55 791.88 623.03 817.61 657.49 844.73 705.47 870.57 761.53 888.92 821 897.26 875.37 895.61 915.04 882.52 934.1 859.56 928.19 828.29 901.1 791.12 858.68 750.82 813.24 708.21 781.64 666.48 773.98 627.19 797.59 589.81 849.78 556.34 918.77 526.8 985.9 500.16 1030.9 476.9 1040.19 456.23 1010.34 437.65 954.33 420.49 892.06 403.93 848.96 388.34 845.23 372.4 883.79 355.61 951.94 339.05 1023.24 321.15 1068.62 301.74 1067.93 282.32 1021.72 261.84 949.84 240.58 882.72 219.56 847.14 198.23 855.49 177.2 901.43 147.74 994.47 101.52 1008.11 88.89 913.79 94.43 821.97 136.33 939.73 143.95 945.3 139.14 915.36 125.57 865.77 101.76 806.43 67.97 745.45 25.39 693.01 -23.37 654.49 -73.41 631.91 -120.76 625.09 -159.88 630.29 -186.08 645.61 -196.19 664.24 -188.55 681.6 -166.18 697.77 -131.93 707.24 -92.3 709.23 -57.2 705.8 -32.64 695.26 -25.31 679.25 -39.34 659.24 -73.01 636.18 -121.44 611.81 -175.96 585.81 -225.97 560.28 -260.81 536.27 -273.46 511.92 -260.23 489.82 -223.43 470.4 -172.54 450.98 -118.94 434.71 -74.52 421.24 -48.76 407.43 -45.77 395.69 -64.55 385.08 -101.15 372.83 -145.45 359.92 -187.43 344.7 -219.83 325.5 -234.35 301.55 -228.36 271.33 -203.18 235.7 -162.17 193.43 -111.93 145.38 -58.98 96.13 -10.55 46.55 28.05 1.3 59.24 -44.86 40.34 -37.49 8.55 10.92 -22.82 57.49 -42.78 37.91 -26.05 -44.89 -5.03 -112.02 22.11 -170.53 53.38 -205.08 88.32 -207.08 124.53 -176.3 160.52 -122.81 197.15 -67.84 232.02 -30.23 264.59 -26.83 296.57 -62.92 326.04 -128.1 353.07 -200.68 379.52 -254.13 403.93 -268.2 426.49 -236.49 448.86 -173.22 469.74 -103.3 489.15 -57.07 508.57 -56.36 526.06 -99.76 541.52 -167.21 556.78 -231.53 569.64 -264.4 579.81 -253.19 589.39 -202.61 595.89 -131.07 599.15 -64.09 601.8 -23.27 601.41 -19.91 598.43 -50.67 594.39 -130.14 592.14 -184.68 602.94 -119.64 618.93 -53.98 642.23 10.05 673.54 60.07 711.73 88.91 756.01 94.1 804.03 79.89 851.41 50.96 895.38 18.16 931.46 -10.11 961.08 -33.11 927.73 13.53 877.29 71.66 844.37 118.05 819.17 164.65 808.23 208.67 816.46 251.03 843.61 288.33 886.96 320.56 939.9 349.66 993.47 374.61 1037.56 396.58 1063.85 416.72 1066.58 435.49 1044.67 453.88 1004.1 471.79 952.48 490.27 901.59 509.69Q901.56 509.7 901.56 509.7" opacity="0.31"></path><path d="M879.06 494.11C843.34 512.75 827.32 529.14 833.39 543.06 860.49 556.62 901.12 567.06 946.24 573.86 1002.41 580.44 1003.25 571.84 946.6 559.92 896.26 554.1 845.33 550.15 800.39 551.12 766.21 560.76 745.93 579.81 739.8 610.21 747.45 650.78 764.85 700.62 787.64 756.07 813.63 809.74 836.73 856.88 853.67 890.17 863.97 904.53 864.51 897.72 855.48 870.85 838.03 832.72 812.83 791.03 782 758.08 746.49 746.68 708.81 761.9 670.86 804.6 632.32 866.4 595.69 933.63 561.68 988.67 529.07 1016.16 499.48 1008.37 472.71 967.51 447.45 909.53 424.42 853.47 403.09 820.99 382.63 827 363.12 870.75 344.18 938.44 325.46 1005.67 306.85 1047.04 288.21 1045.43 269.57 1001.75 251.35 933.32 233.75 867.03 216.39 827.35 200.12 827.38 185.44 864.35 165.86 953.64 142.75 1003.41 141.29 926.55 143 858.16 148.14 799.87 156.07 765.16 163.42 760.29 171.38 782.3 178.17 821.09 178.99 884.47 137.79 904.18 90 847.48 48.63 792.43 2.26 735.01 -45.73 682.53 -90.53 638.73 -128.68 607.98 -155.74 590.24 -169.02 584.88 -166.8 588.68 -149.25 597.75 -120.94 611.69 -85.19 624.88 -48.52 634.91 -11.59 645.19 -44 634.9 -111.81 616.97 -164.12 602.16 -210.24 585.25 -241.02 567.19 -250.78 548.67 -236.65 529.89 -200.93 511.25 -152.2 492.61 -100.51 474.55 -56.47 456.76 -28.77 438.52 -21.64 419.66 -35.02 399.31 -66.25 377.3 -107.01 352.35 -148.57 323.47 -184.35 291.84 -205.89 255.5 -209.5 214.54 -195.11 172.21 -163.95 127.52 -120.85 82.98 -71.09 43.3 -21.13 9.78 23.47 -13.58 59 -24.57 82.58 -21.58 93.91 -4.45 93.05 21.34 83.05 53.17 67.28 83.8 46.96 102.95 27.31 105.93 11.12 87.41 -1.65 47.27 -7.5 -9.82 -6.08 -74.43 1.44 -132.63 15.76 -172.72 35.59 -184.48 60.02 -166.41 87.8 -123.31 117.42 -68.58 149.15 -22.61 180.95 -0.29 211.85 -12.63 243.23 -59.02 272.93 -126.46 300.56 -193.67 328.12 -237.85 353.52 -243.38 376.66 -207.41 399.72 -144.81 420.63 -78.27 439.27 -34.57 457.91 -32.94 473.85 -72.41 487.09 -135.94 505.45 -219.09 528.16 -164.92 533.02 -63.95 539.47 -38.21 568.85 -169.69 597.75 -137.48 625.05 -85.12 658.64 -22.68 698.08 37.45 740.94 86.34 786.19 116.42 830.94 126.5 871.15 117.64 904.41 96.1 927.28 69.11 937.97 40.32 935.15 18.22 919.03 6.38 893.83 4.7 861.93 15.36 828.8 36.32 802.32 65.95 786.35 101.39 785.61 139.51 802.88 180.41 836.55 220.17 882.84 257.32 934.92 293.87 984.58 326.83 1023.02 356.18 1043.59 384.54 1041.97 409.88 1017.96 432.62 977.61 455.01 927.81 475.46 879.09 494.1Q879.06 494.11 879.06 494.11" opacity="0.70"></path><path d="M856.56 424.66C813.6 449.63 850.45 481.52 911.56 488.6 969.37 492.9 990.74 493.98 946.57 497.85 901.79 506.42 852.7 520.41 805.44 541.88 764.77 571.21 734.8 608.98 717.23 654.53 720.87 752.67 757.66 839.98 798.87 873.17 829.11 840.17 827.48 765.54 796.07 719.53 771.62 730.36 742.78 765.68 711.3 821.11 677.26 885.03 642.88 944 609.3 983.19 575.51 992.79 543.61 970.21 513.93 921.93 484.9 865.23 458.14 817.26 433.56 795.67 409.5 810.58 387.25 858.43 366.61 924.93 346.15 987.9 326.99 1025.38 309.13 1022.93 291.27 981.73 275.12 916.82 260.79 851.79 246.63 808.76 234.6 801.08 224.97 828.86 215.86 882.26 209.53 940.75 206.16 984.56 203.42 1000.88 203.6 983.07 206.44 936.69 209.06 873.66 213.25 810.26 217.96 761.03 220.11 735.33 220.48 736.23 217.4 759.18 193.74 840.92 144.08 891.98 67.02 869.26 -21.01 782.77 -100.15 677.13 -141 594.85 -142.02 566.94 -129.36 549.48 -104.63 540.6 -73.3 539.67 -38.76 543.21 -7.08 548.49 18.17 559.57 -33.43 568.24 -102.4 562.59 -151.99 556.67 -194.07 547.22 -220.88 534.64 -227.94 521.75 -213.03 506.29 -178.43 488.43 -131.86 470.57 -82.14 450.73 -38.68 428.82 -9.39 406.61 1.47 381.78 -6.69 354.01 -32.39 325.42 -68.89 293.44 -108.79 258.16 -146.34 222.52 -173.3 184.55 -185.3 145.64 -181.26 109.41 -160.61 75.67 -126.47 47.27 -82.83 26.81 -34.95 15.79 11.9 16.16 87.36 43.38 121.65 97.72 118.35 137.4 86.98 113.32 54.01 19.91 36.14 -99.03 32.64 -140.59 35.24 -158.8 43.44 -149.04 55.99 -115.75 73.01 -66.92 93.34 -16.98 116.48 16.3 141.35 22.5 166.87 -3.89 193.65 -57.76 220.01 -124.78 245.27 -185.08 270.91 -219.77 294.97 -217.36 317.1 -177.89 339.29 -116.39 359.42 -53.29 377.28 -12.07 395.15 -9.6 410.32 -45.25 422.93 -104.68 440.7 -188.96 465.66 -161.58 474.65 -66.55 484.97 8.92 513.42 -18.75 536.78 -88.94 557.9 -128.44 583.78 -146.46 614.8 -138.7 687.74 -55.5 771.99 61.47 850.19 141.31 900.33 154.96 908.4 118.95 870.15 75.87 841.88 57.85 811.31 48.55 783.61 48.55 765.39 56.4 759.3 72.59 768.35 94.98 793.44 122.62 832.02 153.21 879.64 184.68 929.63 218.01 974.67 250.11 1007.26 279.99 1022.33 310.1 1016.72 337.39 990.98 361.57 951.06 385.71 903.15 406.78 856.59 424.65Q856.56 424.66 856.56 424.66" opacity="0.62"></path><path d="M834.06 341.09C791.97 365.21 820.53 399.7 876.84 411.98 953.3 430.78 980.41 451.71 943.2 486.51 860.4 540.81 769.45 618.81 705.63 712.77 694.72 816.47 786.36 736.72 787.34 701.29 757.87 780.82 710.14 900.48 654.86 968.08 593.53 928.73 535.61 824.13 484.97 773.06 459.76 795.88 436.54 846.71 415.38 911.35 394.28 969.94 375.14 1003.65 358.05 1000.43 340.96 961.66 326.34 900.32 314.16 836.93 302.04 791.33 292.47 776.66 285.44 795.27 269.52 936.89 261.29 776.71 233.82 710.24 189.11 770.42 122.17 839.82 38.89 860.71 -40.98 818.81 -99.71 731.1 -115.28 637.23 -87.04 557.77 -26.74 510.54 31 487.99 43.17 484.67 -3.39 484.27 -93.04 476.12 -158.45 469.23 -197.16 438.85 -155.93 414.99 -111.52 397.9 -63.82 377.7 -21.14 354.55 9.36 331.38 23.59 305.3 20.34 276.61 -32.97 220.32 -108.06 158.54 -155.92 102.64 -151.53 65.97 -91.28 56.91 -3.68 83.69 81.08 124.89 136.41 163.55 156.24 160.68 143.63 95.01 117.31 -14.89 94.27 -110.67 76.88 -129.33 78.43 -60.9 96.89 29.19 126.09 37.83 164.32 -57.95 204.9 -174.58 226.18 -199.81 246.93 -190.18 266.69 -147.97 286.59 -87.97 305.2 -28.36 322.29 10.42 339.38 13.66 354.54 -18.3 367.91 -73.5 381.44 -134.76 393.48 -180.58 404.43 -196.82 428.29 -132.58 452.23 -8.53 482.25 55.88 523 13.34 577.72 -75.66 647.78 -119.62 723.48 -79.58 798.87 22.82 856.27 124.64 881.23 184.1 866.43 187.41 817.25 159.26 765.22 117.97 735.62 96.25 756.26 101.16 829.16 125.56 923.7 166.8 990.21 212.44 1000.07 237.01 990.88 260.55 963.76 282.31 924.46 304.29 878.5 323.99 834.09 341.08Q834.06 341.09 834.06 341.09" opacity="0.53"></path><path d="M811.56 291.23C762.31 323.85 777.78 353.36 842.21 383.67 918.28 419.21 955.95 464.96 935.68 527.15 867.38 598.86 779.12 681.12 704.31 756.61 661.16 801.51 730.99 680.8 754.98 703.27 748.79 803.77 722.66 909.84 684.08 942.84 636.62 881.58 586.98 783.41 540.75 753.17 493.39 835.23 452.52 952.06 419.9 977.93 387.28 883.89 364.46 775.17 350.3 763.87 335.01 853.91 325.31 941.51 316.24 938.39 298.29 844.92 270.7 733.85 226.63 679.85 166.42 704.82 91.47 770.25 12.5 819.66 -51.57 824.65 -86.7 774.79 -79.28 695.42 -38.44 605.63 20.55 531.27 64.95 478.75 61.31 443.85 5.07 422.01 -83.58 402.66 -160.6 387.66 -182.68 365.58 -133.43 332.97 -45.84 300.35 27.19 258.73 46.03 212.22 -31.6 151.3 -115.33 117.21 -19.94 167.04 66.14 196.15 136.25 199.19 177.56 151.46 182.17 7.25 131.24 -42.82 129.45 67.65 140.65 46.88 163.36 -59.26 192.76 -161.9 224.93 -163.22 258.62 -61.13 291.24 32.92 323.86 7.08 353.87 -103.12 383.21 -172.61 415.32 -129.82 451.95 -13.08 497.28 72.09 550.29 63.02 614.62 -13.77 686.95 -80.32 755.23 -84.42 813.18 -14.6 845.77 86.06 847.22 176.25 815.79 222.66 763.67 228.26 722.29 203.05 711.42 174.5 748.94 159.32 827.85 153.65 916.76 167.24 971.82 193.22 965.59 224.42 899.17 258.6 811.59 291.22Q811.56 291.23 811.56 291.23" opacity="0.49"></path><path d="M789.06 303.63C740.67 334.7 750.74 371.78 807.84 416.77 881.87 464.91 927.76 524.98 923.37 595.58 871.57 663.08 791.17 725.16 711.58 763.49 640.75 751.26 669.79 644.64 703.22 721.65 714.22 827.49 707.69 908.8 686.99 907.86 657.28 832.2 620.77 745.81 583.05 735.97 543.27 824.35 506.68 933.67 475.61 955.43 444.54 867.34 420.47 759.79 401.67 734.89 380.8 809.22 360.8 901.82 336.67 926.06 303.54 860.99 258.9 751.93 200.02 670.2 132.82 654.73 60.02 696.87 -5.55 753.5 -48.99 793.43 -60.54 787.11 -34.7 741.11 12.53 667.98 65.07 589.56 94.11 521.01 75.72 460.7 12.15 415.5 -73.86 380.15 -142.95 349.5 -159.32 320.37 -110.93 289.31 -27.59 258.24 44.87 226.71 70.31 198.77 38.75 175.53 -24.81 164.21 -83.49 170.68 -112.15 185.38 -92.31 212.65 -33.44 237.91 46.38 236.03 123.52 197.76 181.43 117.13 218.55 -19.7 195.36 13.88 184.77 96.79 183.93 49.8 194.29 -60.47 213.78 -146.81 235.41 -133.92 262.63 -32.68 293.7 55.42 324.76 33.69 358.2 -69.31 395.16 -145.72 434.25 -123.92 480.4 -19.86 535.07 78.58 592.97 102.31 657.19 48.87 721.25 -24.61 774.07 -64.98 809.76 -36.78 817.83 41.55 800.64 138.92 760.34 216.81 712.85 260.29 686.32 269.85 694.33 258.94 745.75 245.28 867.83 226.73 905.51 260.77 789.09 303.62Q789.06 303.63 789.06 303.63" opacity="0.73"></path><path d="M766.56 371.19C719.2 400.7 724.28 440.81 773.91 490.56 844.42 540.14 896.1 596.99 905.87 654.01 871.41 698.98 803.06 726.9 724.88 725.63 633.99 677.98 611.51 633.12 640.43 749.56 663.01 870.24 636.62 747.22 598.01 721.32 568.26 813.72 537.53 915.03 508.02 932.93 478.51 850.73 451.6 745.37 425.7 708.49 397.53 765.64 366.08 857.22 327.72 903.64 282.51 870.12 227 775.68 162.39 679.61 97.58 627.28 36.02 634.26 -9.97 676.99 -31.28 730.56 -22.22 758.48 15.9 751.01 63.36 712.84 105.24 653.65 118.06 589.77 86.66 522.68 18.18 465.03 -63.71 418.49 -124.73 374.54 -135.79 338.52 -88.43 309 35.5 253.86 -81.53 274.98 -41.02 272.97 26.24 234.97 102.29 164.68 169.75 72.43 235.39 -29.96 257.17 69.94 250.59 115.84 247.95 -6.37 288.33 -53.97 328.91 77.92 358.42 60.05 393.9 -35.25 435.38 -116.28 477.89 -114.23 527.63 -27.02 583.39 76.63 637.91 128.9 692.9 105.7 740.67 40.6 773.62 -21.62 786.6 -33.62 774.34 8.86 745.56 89.42 704.5 177.07 667.96 247.57 658.64 294.33 684.16 315.03 745.84 321.21 862.5 313.75 878.35 332.91 766.59 371.18Q766.56 371.19 766.56 371.19" opacity="0.24"></path><path d="M744.06 455.23C697.89 483.19 698.39 519.72 740.55 561.92 833.78 620.69 838.98 682.92 741.09 653.14 668.4 619.05 610.85 585.19 575.17 575 562.41 607.81 566.27 682.54 577.33 778.39 600.76 859.86 603.34 708.31 579.85 709.06 559.83 803.22 535.1 896.15 507.15 910.43 479.19 834.07 449.31 731.85 416.6 684.78 382.11 724.07 341.76 809.2 294.04 871.29 242.96 868.79 185.05 798.56 124.46 702.91 30.98 641.26 125.67 702.45 136.68 647.1 94.47 594.02 23.5 540.81 -52.98 494.07 -105.93 446.9 -112.1 408.74 -65.93 380.78 43.74 344.6 81.07 326 1.91 331.8 -45.57 325.37 -60.86 306.01 -40.11 263.27 10.15 198.4 77.77 115.81 146.82 35.15 209.02 -15.21 255.28 -17.94 285.49 31.23 301.04 97.77 307.69 142.94 311.96 124.96 313.83 -8.13 348.37 -24.22 386.02 100.42 413.98 86.17 449.18 -1.07 490.64 -84.46 531.93 -100.22 578.51 -32.75 627.24 68.29 671.43 142.04 710.82 151.04 738.37 106.74 751.25 39.99 745.14 -1.58 719.59 2.24 687.19 49.08 652.72 123.08 631.55 200.25 639.91 270.84 680.26 321.46 748.24 354.24 825.08 373.2 886.63 385.36 908.15 398.67 883.01 409.2 818.85 427.26 744.09 455.22Q744.06 455.23 744.06 455.23" opacity="0.30"></path><path d="M721.56 507.66C676.74 534.06 673.13 562.23 707.9 589.07 795.79 620.28 834.96 612.47 756.79 569.96 687 548.11 622.59 542.48 573.11 569.25 541.55 630.99 527.43 717.05 524.73 799.34 532.45 842.8 540.75 828.1 544.56 761.1 548.62 688.98 544.69 657.68 532.6 698.94 519.61 792.71 499.66 877 473.25 887.93 446.84 817.32 415.24 719.11 378.43 663.81 340.72 685.37 296.61 759.5 246.79 830.06 197.22 854.74 145.43 814.1 97.01 732.29 55.36 604.44 161.28 672.71 150.04 660.61 99.6 634.1 28.48 598.97 -41.54 562.79 -86.51 523.97 -88.25 489.96 -43.43 463.55 26.99 437.14 94.81 419.59 134.59 408.61 133.36 394.99 98 382.09 46.95 362.84 -3.9 331.27 -31.78 283.63 -28.98 217.7 2.13 144.82 55.66 72.3 118.71 20.9 183.75 7.04 240.24 36.47 284.43 97.92 317.12 152.24 339.13 169.22 355.04 125.19 369.99 -9.28 411.48 5.86 447.44 122.92 473.84 112.02 506.29 33.09 543.21 -50.49 579.06 -81.58 616.89 -35.27 652.8 56.2 696.39 122.29 620.11 57.92 605.36 142.24 630.05 214.47 681.61 279.91 751.82 332.49 822.22 376.08 872.62 408.49 884.06 434.89 854.48 457.85 792.02 481.24 721.59 507.65Q721.56 507.66 721.56 507.66" opacity="0.37"></path><path d="M699.06 498.46C655.75 523.32 648.49 542.58 676.13 554.58 729.3 564.35 784.27 563.51 821.94 551.15 834.08 537.71 813.9 518.9 768.59 504.35 707.52 508.77 643.26 536.43 586.24 593.19 540.39 668.8 509.51 748.53 491.17 805.06 484.25 816.77 482.53 778.06 480.93 706.77 482.39 648.61 478.99 637.61 468.92 690.65 458.9 782.05 441.63 857.58 416.78 865.43 391.93 800.47 360.66 707.05 323.81 645.54 287.01 650.27 245.2 709.99 200.67 781.81 159.2 827.24 119.99 816.99 88.61 758.87 68.65 675.36 63.84 598.14 77.12 547.65 101.57 530 136.36 539.78 171.55 562.06 190.99 592.01 188.88 612.65 158.52 619.43 102.63 618.45 33.52 605.13 -29.24 584.34 -66.47 560.5 -64.24 534.8 -20.93 509.95 45.16 485.09 110.54 462.26 153.18 439.23 160.51 413.16 135.67 381.26 92.01 339.18 41.64 289.34 5.4 227.77 -6.88 159.51 5.19 98.93 41.3 53.46 92.29 38.52 151.96 56.43 210.63 104.19 262.37 161.82 307.51 194.07 342.98 182.05 370.82 118.41 392.93 28.38 412 -45.49 431.11 -59.83 448.73 -7.93 469.38 80.43 494.23 145.42 519.08 137.6 546.97 67.11 576.21 -14.69 603.97 -58.16 630.12 -33.03 651.08 43.33 654.53 157.8 579.68 63.89 590.14 101.78 628.31 154.64 686.83 214.37 755.42 270.88 817.3 326.31 856.29 372.36 858.57 409.47 825.52 444.34 765.18 473.6 699.09 498.45Q699.06 498.46 699.06 498.46" opacity="0.88"></path><path d="M676.56 432.91C634.92 456.21 624.49 470.14 645.33 474.93 691.26 479.56 743.2 475.75 784.64 466.62 807.71 463.07 803.02 463.73 773.52 477.48 725.47 510.4 667.71 564.1 610.04 635.15 556.49 707.15 513.31 766.08 481.12 791.04 458.76 774.72 443.98 721.34 432.84 654.69 426.17 614.23 418.18 622.24 406.31 683.89 395.21 771.11 378.44 837.89 355.14 842.93 331.84 783.5 303.12 695.56 270.27 629.89 238.21 619.33 203.81 662.46 170.1 729.01 140.86 787.16 117.27 803.84 103.73 774.28 100 709.67 109.74 632.44 132.75 564.84 174.94 506.58 210.94 517.96 162.68 539.41 104.16 551.29 38.97 552.75 -15.95 544.35 -45.78 534.12 -40.07 516.71 1.56 493.41 63.31 470.11 125.86 442.03 170.42 408.33 185.24 372.79 170.74 328.94 135.96 276.68 89.47 223.73 49.28 167.62 25.84 116.99 21.08 82.62 38.97 70.47 74.16 87.53 121.89 124.59 174.92 174.19 226.71 214.55 277.09 219.86 320.8 182.3 357.46 107.07 390.08 23.45 417.77 -32.95 442.48 -31.4 465.79 25.25 488.68 108.47 511.98 167.92 535.28 162.9 557.89 100.86 578.52 22.63 597.75 -30.04 612.45 -24.81 620.2 32.71 623.93 116.45 618.59 190.73 604.12 231.32 588.25 230.62 568.66 199.32 551.46 157.86 546.81 117.34 556.54 97.09 585.56 100.07 633.26 122.24 694.34 159.95 757.9 203.88 809.77 253.38 837.54 299.58 831.71 338.89 796.15 378.04 738.33 409.6 676.59 432.9Q676.56 432.91 676.56 432.91" opacity="0.37"></path><path d="M654.06 348.52C614.24 370.26 601.14 384.09 615.62 391.47 654 400.36 701.32 406.26 743.82 413.8 774.65 429.52 783.2 454.99 769.26 495.08 736.63 547.36 690.27 611.4 638.31 678.14 584.4 731.76 535.38 761.84 494.07 756.42 459.28 720.08 432.19 662.35 410.63 607.7 393.5 586.69 378.07 611.31 361.96 678.28 346.97 759.78 329.07 817.9 307.32 820.43 285.57 766.4 261.02 684.51 235 616.69 210.1 592.94 185.97 618.64 165.41 674.58 144.92 755.28 158.53 703.48 192.84 603.7 216.29 539.62 236.87 492.72 246.86 464.41 238.16 452.92 210.1 452.48 163.33 455.44 104.89 463.45 45.19 466.71 -1.57 462.34 -24.44 458 -15.75 445.15 24.06 423.4 81.46 401.66 140.82 372.05 186.35 335.39 207.47 298.75 202.71 255.93 177.66 210.24 137.81 169.59 97.89 134.21 67.83 112.18 50.03 106.96 51.32 122.63 69.64 158.21 101.48 198.29 142.83 234.9 187.75 249.79 235.56 228.62 280.62 172.36 320.76 94.11 359.18 22.23 392.48 -15.85 421.13 -0.51 448.86 58.89 473.48 136.37 495.22 190.42 516.97 187.91 534.81 134.21 548.1 61.1 560.47 2.51 566.73 -9.74 565.99 27.19 563.54 97.78 554.29 175.02 540 234.01 528.59 262.08 518.46 257.79 515.12 232.67 525.3 194.43 549.79 161.6 590.22 142.84 642.93 136.27 702.35 146.6 758.14 168.58 799.14 198.72 816.28 232.38 803.56 264.5 766.43 298.13 711.48 326.76 654.09 348.51Q654.06 348.52 654.06 348.52" opacity="0.63"></path><path d="M631.56 293.59C593.71 313.78 578.45 331.3 587.11 347.65 617.89 366.01 659.34 387.05 700.45 414.26 735.74 447.92 754.49 491.54 754.41 545.07 737.6 601.01 705.52 657.73 664.14 704.86 616.55 731.92 568.71 732.81 524.53 704.18 483.03 658.23 447.58 605.76 417.84 568.19 391.37 566.39 368.5 604.33 347.68 673.39 327.92 747.91 308.25 797.62 288.06 797.93 267.86 749.15 248.1 673.77 229.78 605.74 212.52 571.31 198.65 580.01 190.13 621.58 185.98 704.1 219.93 721.96 250.49 648.14 265.4 584.81 273.54 526.26 269.31 479.11 248.37 442.94 211.51 419.44 161.43 404.38 105.52 396.4 52.56 389.93 14 380.96 -2.45 373.39 8.71 360.19 46.56 340 99.62 319.81 155.46 293.58 201.07 263.07 227.18 233.96 231.23 203.69 216.11 176.67 184.87 156.74 148.87 146.97 116.76 152.02 90.73 168.04 78.96 197.59 81.92 234.46 96.95 262.88 123.32 276.83 156.52 264.46 195.2 222.01 234.94 155.87 272.66 82.57 310.85 26.19 345.14 5.99 374.73 32.6 404 92.83 428.92 164.12 449.11 212.92 469.31 212.63 483.82 167.03 492.63 100.29 501.13 39.02 503.57 12.56 500.39 29.15 497.66 81.52 491.18 152.09 483.61 219.07 481.53 268.73 484.15 291.79 495.58 291.2 519.08 270.53 554.79 242.81 601.84 217.99 654.97 195.58 709.08 185.21 755.13 186.55 785.05 194.33 792.51 210.02 774.2 229.74 736.39 251.47 684.64 273.39 631.59 293.58Q631.56 293.59 631.56 293.59" opacity="0.58"></path><path d="M609.06 299.56C573.34 318.2 556.42 339.84 559.88 365.09 583.21 391.71 617.96 424.21 655.6 463.48 692.14 505.05 717.61 552.57 728.57 602.45 726.18 646.63 709.07 682.82 681.03 702.8 644.65 703.23 604.08 681.45 563.34 640.5 521.87 595.56 483.81 555.94 450.26 537.84 418.31 553.28 390.48 600.71 366.34 668.83 342.9 735.41 321.93 777.04 303.29 775.43 284.65 731.75 269.23 663.23 257.51 596.76 246.5 554.43 240.42 547.65 240.07 572.9 241.31 621.09 248.68 671.14 261.42 707.07 273.43 723.01 287.24 712.35 299.19 680.46 302.8 632.91 297.81 579.19 280.8 527.56 250.43 478.52 208.24 438.35 158.04 406.91 106.73 380.89 61.38 360.37 30.85 342.5 20.2 326.34 33.34 309.57 69.06 290.93 117.79 272.3 169.84 252.67 214.65 233.67 250.23 209.69 214.32 200.58 169.7 225.62 130.48 262.01 117.32 300.37 142.35 259.31 168.04 203.97 197.65 137.2 228.11 75.36 260.51 36.43 291.13 32.58 318.35 67.71 345.79 126.98 369.23 191.72 387.87 235.42 406.51 237.05 419.47 199.21 427.18 139.82 436.76 60.47 440.7 100.19 444.28 192.71 453.57 253.07 469.13 296.95 493.41 320.96 526.71 325.41 568.87 315.98 617.46 300.53 666.87 279.38 712.84 262.55 748.04 253.29 767.27 246.32 766.27 247.72 743.7 256.25 706.08 266.16 657.81 280.91 609.09 299.55Q609.06 299.56 609.06 299.56" opacity="1.00"></path><path d="M586.56 363.02C536.61 397.19 552.96 455.81 610.43 533.08 677.12 603.6 703.65 662.8 683.85 667.92 630.81 620.32 561.16 542.23 497.08 517.54 432.94 598.39 382.49 722.73 348.32 752.93 306.81 597.5 317.41 648.72 333.82 686.49 308.84 625 246.06 534.66 154.33 457.52 71.81 387.5 41.61 338.46 91.56 304.29 221.11 262.07 218.13 301.25 156.44 336.47 142.26 289.94 162.6 181.67 201.09 75.02 249.56 60.93 296.18 157.87 330.35 257.92 364.54 227.74 383.02 117.26 393.78 61.44 414.51 111.16 447.49 225.5 506.46 317.89 631.05 354.63 709.21 325.59 586.59 363.01Q586.56 363.02 586.56 363.02" opacity="0.84"></path><path d="M564.06 447.64C515.67 478.71 521.55 529.02 566.09 584.68 647.97 632.83 619.78 522.51 543.71 507.24 487.32 598.99 440.34 708.67 409.28 730.43 372.1 587.89 366.54 587.48 351.47 659.8 308.41 647.28 236.74 591.13 151.45 527.13 84.15 457.12 65.67 403.49 114.06 372.43 197.4 341.35 271.82 335.78 304.57 351.95 288.51 362.12 248.05 369.79 212.02 341.61 183.31 265.8 181.87 158.41 201.02 83.44 229.13 96.02 263.23 192.31 294.3 280.42 325.37 258.68 350.46 161.6 376.18 92.61 410.86 103.82 460.78 190.4 530.21 287.54 606.95 362.62 680.38 396.56 719.21 409.51 709.25 407.69 647.43 416.57 564.09 447.63Q564.06 447.64 564.06 447.64" opacity="0.15"></path><path d="M541.56 504.99C546.43 569.16 623.62 474.84 575.59 506 533.92 600.45 495.33 693.65 467.37 707.93 439.41 631.57 424.73 528.52 417.95 474.93 404.85 494.84 386.57 554.5 351.85 603.55 297.52 629.29 224.75 613.92 150.55 577.38 98.71 528.65 90.39 484.3 136.56 456.34 211.32 428.38 282.7 419.46 323.69 419.73 325.45 407.82 301.27 379.56 272.11 317.18 232.65 186.83 251.85 180.69 290.81 302.92 318.77 288.66 350.03 206.8 387.84 132.83 431.59 111.91 489.51 162.06 558.47 243.5 624.28 330.07 678.12 392.62 696.86 431.08 676.38 455.96 616.34 477.02 541.59 504.98Q541.56 504.99 541.56 504.99" opacity="0.39"></path><path d="M519.06 502.24C508.56 524.36 603.76 444.36 582.05 512.04 557.4 601.74 529.56 677.58 504.7 685.43 479.85 620.46 460.33 526.56 441.92 461.9 417.73 451.97 384.6 485.89 337.39 529.59 279.6 572.58 212.68 588 152.65 579.36 115.67 560.03 115.75 532.86 159.06 508 225.16 483.15 291.75 462.97 337.54 439.23 354.09 404.8 347 350.6 329.79 275.04 294.59 168.62 289.57 218.53 320.96 325.42 345.81 317.59 380.08 251.83 423.4 180.34 469.12 137.18 525.22 150.89 584.34 203.37 634.12 277.15 667.58 346.64 669.26 398.83 641.69 444.27 585.18 477.38 519.09 502.23Q519.06 502.24 519.06 502.24" opacity="0.30"></path><path d="M496.56 440.97C449.04 464.95 493.78 433.51 535.57 406.33 557.94 414.66 565.2 453.09 559.09 522.97 549.12 601.87 531.51 660.4 509.77 662.93 488.02 608.9 464.2 526.73 436.48 458.27 404.9 425.21 363.7 430.22 312.83 454.94 258.91 493.02 203.09 519.71 158.64 527.82 135.15 530.93 141.74 519.59 181.56 497.85 238.96 476.1 299.26 446.01 346.46 405.21 373.71 359.42 381.95 298.79 378.57 232.21 363.9 178.98 351.65 150.9 348.61 168.02 345.17 220.52 353.72 293.87 375.47 347.92 397.21 345.41 430.09 295.7 471.21 232.73 511.93 178.79 558.13 163.42 601.3 183.59 633.19 228.62 648.02 283.85 636.71 332.83 605.46 382.25 553.98 419.22 496.59 440.96Q496.56 440.97 496.56 440.97" opacity="0.38"></path><path d="M474.06 356.25C428.98 377.25 444.45 374.2 475.4 385.55 497.25 416.21 509.46 468.44 510.45 535.9 509.75 599.88 499.65 642.04 481.01 640.43 462.37 596.75 436.96 528.04 405.35 462.51 372.06 415.68 330.76 395.97 284.49 396.85 190.99 438.3 279.18 397.05 351 338.61 384.31 296.65 404.08 248.49 413.31 205.94 412.47 180.62 409.89 180.56 411.33 213.73 410.92 265.6 418.9 326.75 437.54 370.43 456.17 372.04 483.71 337.43 516.43 287.12 591.28 219.67 545.42 322.21 474.09 356.24Q474.06 356.25 474.06 356.25" opacity="0.66"></path><path d="M451.56 296.56C403.17 327.63 400.78 347.28 418.39 397.03 451.5 485.81 458.35 596.17 427.28 617.93 396.21 529.82 333.11 418.44 259.28 367.71 200.96 369.86 178.17 378.45 226.56 347.38 309.91 316.31 388.14 251.48 431.06 208.61 445.94 218.62 456.96 304.82 488.03 392.93 519.09 371.17 564.33 285.99 590.16 237.93 587.96 228.89 534.91 265.49 451.56 296.56Q451.56 296.56 451.56 296.56" opacity="0.51"></path><path d="M429.06 296.08C385.75 320.93 369.9 363.86 370.9 432.73 387.07 511.1 390 587.59 365.15 595.43 340.29 530.46 292.37 435.67 243.62 371.39 210.04 335.44 205.75 318.05 249.06 293.2 315.16 268.34 384.1 240.74 431.54 244.11 463.42 275.81 486.54 350.46 511.39 415.43 536.24 407.59 558.12 351.25 558.82 305.45 543.96 269.15 495.16 271.22 429.06 296.08Q429.06 296.08 429.06 296.08" opacity="0.85"></path><path d="M406.56 355.07C355.72 392.34 351.02 533.45 313.75 572.93 276.47 460.91 220.72 337.41 271.56 300.14 371.61 262.86 463.15 325.91 500.43 437.93 537.7 398.45 506.61 317.79 406.56 355.07Q406.56 355.07 406.56 355.07" opacity="0.32"></path><path d="M384.06 439.78C340.75 464.63 313.78 542.59 288.93 550.43 264.07 485.44 250.75 389.08 294.06 364.23 360.18 339.37 433.65 395.44 458.51 460.43 483.36 452.59 450.18 414.92 384.06 439.78Q384.06 439.78 384.06 439.78" opacity="0.69"></path></g></svg>